# xmcd CD database file
# Copyright (C) 1993-1998 Ti Kan
# 
# Track frame offsets:
#     150
#     16768
#     36283
#     50630
#     67820
#     84715
#     100945
#     119135
#     133080
#     150590
#     164133
#     178930
#     193500
#     211818
# 
# Disc length: 3163 seconds
# 
# Revision: 1
# Processed by: cddbd v1.4b41PL1 Copyright (c) Steve Scherf et al.
# Submitted via: DiscPlay 4.0.4
# 
DISCID=c70c590e
DTITLE=Various Artist - Mr Musik Plus 8 - 95
DYEAR=1900
DGENRE=
TTITLE0=No matter what you do - Olivia Newton-John
TTITLE1=The biggest foll of all - Cock Robin
TTITLE2=Deram a little dream of - Chicago
TTITLE3=Shotgun - Ardis
TTITLE4=You've got that somethin' - Robyn
TTITLE5=Gonna make an offer you can't refuse - Jimmy Helms
TTITLE6=Can't cry hard enough - Smokie
TTITLE7=You're no good - Aswad
TTITLE8=After all the love has gone - Ten Sharp
TTITLE9=Love hurts - Paul Young
TTITLE10=I believe ( life can be kink) - Anette Lindwall
TTITLE11=Let the music play - Shannon
TTITLE12=Blue bird - 10 cc
TTITLE13=Last nigth a DJ save my life - InDeep
EXTD=
EXTT0=
EXTT1=
EXTT2=
EXTT3=
EXTT4=
EXTT5=
EXTT6=
EXTT7=
EXTT8=
EXTT9=
EXTT10=
EXTT11=
EXTT12=
EXTT13=
PLAYORDER=
